<svg width="44" height="44" viewBox="0 0 44 44" fill="none" xmlns="http://www.w3.org/2000/svg">
<path d="M1.9823 1.98465C-0.660766 4.62757 -0.660766 8.91568 1.9823 11.5586L32.4432 42.0178C35.0863 44.6607 39.3746 44.6607 42.0177 42.0178C44.6608 39.3749 44.6608 35.0868 42.0177 32.4439L11.5568 1.98465C8.9137 -0.660573 4.62767 -0.660573 1.9823 1.98465Z" fill="#ADADAD"/>
<path d="M1.9823 42.0154C4.62536 44.6583 8.9137 44.6583 11.5568 42.0154L42.0177 11.5561C44.6608 8.91322 44.6608 4.62511 42.0177 1.98219C39.3746 -0.66073 35.0863 -0.66073 32.4432 1.98219L1.9823 32.4414C-0.660766 35.0843 -0.660766 39.3725 1.9823 42.0154Z" fill="#4C2EFF" style="mix-blend-mode:hard-light"/>
<path d="M6.96652 42.6951C9.99287 42.6951 12.4462 40.2419 12.4462 37.2157C12.4462 34.1895 9.99287 31.7363 6.96652 31.7363C3.94017 31.7363 1.48682 34.1895 1.48682 37.2157C1.48682 40.2419 3.94017 42.6951 6.96652 42.6951Z" stroke="white" stroke-width="0.782543" stroke-miterlimit="10"/>
<path d="M37.2363 12.4294C40.2626 12.4294 42.716 9.97615 42.716 6.94997C42.716 3.92379 40.2626 1.47058 37.2363 1.47058C34.2099 1.47058 31.7566 3.92379 31.7566 6.94997C31.7566 9.97615 34.2099 12.4294 37.2363 12.4294Z" stroke="white" stroke-width="0.782543" stroke-miterlimit="10"/>
</svg>
