<?xml version="1.0" encoding="UTF-8"?>
<svg id="Capa_1" xmlns="http://www.w3.org/2000/svg" version="1.1" viewBox="0 0 966.2 1075.6">
  <!-- Generator: Adobe Illustrator 29.3.1, SVG Export Plug-In . SVG Version: 2.1.0 Build 151)  -->
  <defs>
    <style>
      .st0 {
        fill: #4c2eff;
      }

      .st1 {
        fill: #666;
      }
    </style>
  </defs>
  <path class="st1" d="M221,957.7h-43.8v-127.6c0-15.5-12.6-28.1-28.1-28.1h0c-15.5,0-28.1,12.6-28.1,28.1v155.7c0,15.5,12.6,28.1,28.1,28.1h71.9c15.5,0,28.1-12.6,28.1-28.1s-12.6-28.1-28.1-28.1h0Z"/>
  <path class="st1" d="M370.9,858.2c15.5,0,28.1-12.6,28.1-28.1s-12.6-28.1-28.1-28.1h-73c-.2,0-.4,0-.6,0s-.4,0-.6,0c-15.5,0-28.1,12.6-28.1,28.1v155.7c0,15.5,12.6,28.1,28.1,28.1s.4,0,.6,0,.4,0,.6,0h73c15.5,0,28.1-12.6,28.1-28.1s-12.6-28.1-28.1-28.1h-46.1v-22.2h46.1c15.5,0,28.1-12.6,28.1-28.1h0c0-15.5-12.6-28.1-28.1-28.1h-46.1v-21h46.1,0Z"/>
  <path class="st0" d="M614.7,814.3c-11-11-28.8-11-39.8,0l-53.8,53.8-53.8-53.8c-11-11-28.8-11-39.8,0-11,11-11,28.8,0,39.8l53.8,53.8-53.8,53.8c-11,11-11,28.8,0,39.8,11,11,28.8,11,39.8,0l53.8-53.8,53.8,53.8c11,11,28.8,11,39.8,0,11-11,11-28.8,0-39.8l-53.8-53.8,53.8-53.8c11-11,11-28.8,0-39.8Z"/>
  <path class="st1" d="M837,807.7c-11-11-28.8-11-39.8,0l-53.5,53.5-53.5-53.5c-11-11-28.8-11-39.8,0-11,11-11,28.8,0,39.8l65.9,65.9v75c0,15.5,12.6,28.1,28.1,28.1h0c15.5,0,28.1-12.6,28.1-28.1v-76.5l64.3-64.3c11-11,11-28.8,0-39.8h0Z"/>
  <rect class="st1" x="47" y="291.9" width="865.2" height="206.9" rx="103.4" ry="103.4" transform="translate(-139.1 454.9) rotate(-45)"/>
  <path class="st0" d="M785.5,554.9L320,89.4c-40.4-40.4-105.9-40.4-146.3,0h0c-40.4,40.4-40.4,105.9,0,146.3l465.5,465.5c40.4,40.4,105.9,40.4,146.3,0h0c40.4-40.4,40.4-105.9,0-146.3h0ZM249.1,240.7c-41.9,0-75.9-34-75.9-75.9s34-75.9,75.9-75.9,75.9,34,75.9,75.9-34,75.9-75.9,75.9h0ZM715.7,707.2c-41.9,0-75.9-34-75.9-75.9s34-75.9,75.9-75.9,75.9,34,75.9,75.9-34,75.9-75.9,75.9Z"/>
</svg>